<?xml version="1.0" encoding="utf-8"?>
<!-- Generator: Adobe Illustrator 24.1.2, SVG Export Plug-In . SVG Version: 6.00 Build 0)  -->
<svg version="1.1" id="Layer_1" xmlns="http://www.w3.org/2000/svg" xmlns:xlink="http://www.w3.org/1999/xlink" x="0px" y="0px"
	 viewBox="0 0 24 24" style="enable-background:new 0 0 24 24;" xml:space="preserve">
<style type="text/css">
	.st0{fill:none;}
	.st1{fill:#ECC200;}
</style>
<path class="st0" d="M0,0h24v24H0V0z"/>
<path class="st1" d="M21,16.4V20c0,0.5-0.4,1-0.9,1c-0.4,0-0.8,0-1.1,0C10.2,21,3,13.8,3,5c0-0.3,0-0.6,0-1.1C3.1,3.4,3.5,3,4,3h3.5
	c0.3,0,0.5,0.2,0.5,0.5c0,0.2,0,0.4,0.1,0.6c0.2,1.4,0.6,2.7,1.2,4c0.1,0.2,0,0.4-0.1,0.6L7,10.1c1.3,3.1,3.8,5.5,6.8,6.8l1.5-2.2
	c0.1-0.2,0.4-0.2,0.6-0.1c1.3,0.6,2.6,1,4,1.2c0.1,0,0.3,0,0.5,0.1C20.8,15.9,21,16.2,21,16.4L21,16.4z"/>
</svg>
